#!OML:ASF H:\Dans Jumps\Project 1\Capture day 1\Session 1\subject.ASF
:FULLY-SPECIFIED
:DEGREES
281
root 0.51693 14.5895 -15.7384 22.9677 0.570361 -1.86825
lowerback 18.8421 0.345595 -1.62642
upperback 5.30584 0.304085 2.53011
thorax -4.84917 0.150221 3.55814
lowerneck -20.6241 0.74965 -0.803068
upperneck 6.65333 1.41989 -1.69937
head 5.30758 0.537902 -0.2684
rclavicle -5.1684e-015 2.18663e-015
rhumerus -66.9486 -15.408 -58.4895
rradius 25.1589
rwrist 27.4445
rhand -16.641 -22.3846
rfingers 7.12502
rthumb 9.58172 -52.1467
lclavicle -5.1684e-015 2.18663e-015
lhumerus -66.5315 1.20849 82.7483
lradius 18.6247
lwrist 18.466
lhand -25.6138 -3.26624
lfingers 7.12502
lthumb 0.918739 26.7115
rfemur -68.5638 -2.26918 22.4097
rtibia 77.6945
rfoot -30.7184 -11.8231
rtoes 1.79561
lfemur -69.7057 7.49819 -22.6565
ltibia 76.8577
lfoot -27.8087 14.2234
ltoes -13.1392
282
root 0.513578 14.5368 -15.7368 23.4324 0.538153 -1.82168
lowerback 19.0343 0.39185 -1.72976
upperback 5.26541 0.343373 2.51408
thorax -4.99677 0.172523 3.5934
lowerneck -20.697 0.73298 -0.752696
upperneck 6.36395 1.38496 -1.74284
head 5.22703 0.521553 -0.294148
rclavicle 3.77691e-015 -1.70955e-014
rhumerus -67.5224 -15.385 -58.2169
rradius 24.9533
rwrist 27.6255
rhand -16.5447 -22.2729
rfingers 7.12502
rthumb 9.67469 -52.0308
lclavicle 3.77691e-015 -1.70955e-014
lhumerus -67.1042 1.23385 82.7058
lradius 18.457
lwrist 18.399
lhand -25.2671 -3.20683
lfingers 7.12502
lthumb 1.25363 26.7692
rfemur -69.4754 -2.22122 22.3842
rtibia 78.3496
rfoot -30.8778 -11.9563
rtoes 1.81676
lfemur -70.5864 7.38878 -22.7425
ltibia 77.496
lfoot -27.9657 14.495
ltoes -13.077
283
root 0.51057 14.4848 -15.7336 23.8977 0.499028 -1.78121
lowerback 19.2289 0.442301 -1.82761
upperback 5.2139 0.388829 2.50095
thorax -5.15811 0.198274 3.62712
lowerneck -20.7802 0.713083 -0.713712
upperneck 6.12147 1.34901 -1.78098
head 5.16288 0.504177 -0.316347
rclavicle 2.98177e-015 -3.97569e-016
rhumerus -68.0479 -15.3782 -57.9268
rradius 24.7254
rwrist 27.9202
rhand -16.432 -22.1847
rfingers 7.12502
rthumb 9.78339 -51.9375
lclavicle 2.98177e-015 -3.97569e-016
lhumerus -67.6121 1.25133 82.6566
lradius 18.2747
lwrist 18.2943
lhand -24.9402 -3.13897
lfingers 7.12502
lthumb 1.56932 26.835
rfemur -70.3684 -2.15325 22.3541
rtibia 78.9923
rfoot -31.0693 -12.0846
rtoes 1.89036
lfemur -71.4526 7.2706 -22.8147
ltibia 78.123
lfoot -28.1138 14.791
ltoes -12.9885
284
root 0.507938 14.4337 -15.7292 24.3677 0.453098 -1.74964
lowerback 19.4261 0.497027 -1.91961
upperback 5.147 0.440816 2.49266
thorax -5.33807 0.227789 3.66108
lowerneck -20.8676 0.692035 -0.684188
upperneck 5.91758 1.31426 -1.81533
head 5.11156 0.486956 -0.335615
rclavicle 3.18055e-015 7.15625e-015
rhumerus -68.5214 -15.378 -57.6291
rradius 24.478
rwrist 28.3137
rhand -16.3334 -22.1012
rfingers 7.12502
rthumb 9.87856 -51.8494
lclavicle 3.18055e-015 7.15625e-015
lhumerus -68.0489 1.2677 82.5929
lradius 18.0717
lwrist 18.128
lhand -24.6206 -3.05043
lfingers 7.12502
lthumb 1.87799 26.9211
rfemur -71.2459 -2.06037 22.3206
rtibia 79.6188
rfoot -31.2831 -12.2168
rtoes 1.99703
lfemur -72.3081 7.1436 -22.8693
ltibia 78.7365
lfoot -28.2514 15.1063
ltoes -12.8628
285
root 0.505686 14.3836 -15.7234 24.8445 0.401764 -1.73094
lowerback 19.626 0.555165 -2.00139
upperback 5.06672 0.499067 2.48908
thorax -5.53457 0.260847 3.69259
lowerneck -20.9611 0.667587 -0.670737
upperneck 5.73837 1.27813 -1.83596
head 5.06877 0.469371 -0.348045
rclavicle 1.78906e-015 8.94531e-015
rhumerus -68.9273 -15.3915 -57.3306
rradius 24.2083
rwrist 28.7873
rhand -16.253 -22.0218
rfingers 7.12502
rthumb 9.95607 -51.7664
lclavicle 1.78906e-015 8.94531e-015
lhumerus -68.3986 1.2954 82.4923
lradius 17.8405
lwrist 17.8639
lhand -24.3508 -2.97896
lfingers 7.12502
lthumb 2.13852 26.9901
rfemur -72.1117 -1.93929 22.2877
rtibia 80.2262
rfoot -31.5046 -12.3685
rtoes 2.1029
lfemur -73.1561 7.00726 -22.9007
ltibia 79.3365
lfoot -28.3708 15.4492
ltoes -12.6975
286
root 0.503992 14.3347 -15.7163 25.3297 0.349738 -1.72085
lowerback 19.8257 0.613668 -2.07017
upperback 4.97394 0.560088 2.48712
thorax -5.74494 0.29566 3.7175
lowerneck -21.0491 0.640536 -0.672275
upperneck 5.56381 1.24012 -1.83574
head 5.02628 0.452052 -0.351647
rclavicle 6.55989e-015 1.17283e-014
rhumerus -69.2564 -15.4172 -57.0493
rradius 23.9171
rwrist 29.3117
rhand -16.209 -21.9476
rfingers 7.12502
rthumb 9.99848 -51.6901
lclavicle 6.55989e-015 1.17283e-014
lhumerus -68.6542 1.34108 82.3401
lradius 17.5802
lwrist 17.4777
lhand -24.078 -2.87146
lfingers 7.12502
lthumb 2.40206 27.0948
rfemur -72.9674 -1.79791 22.2534
rtibia 80.8115
rfoot -31.7193 -12.5587
rtoes 2.165
lfemur -73.995 6.85424 -22.9113
ltibia 79.9209
lfoot -28.4674 15.831
ltoes -12.4929
287
root 0.502989 14.2878 -15.7074 25.8091 0.291815 -1.71666
lowerback 20.042 0.673389 -2.12921
upperback 4.87073 0.623981 2.48345
thorax -5.97582 0.332333 3.7341
lowerneck -21.1293 0.609253 -0.691931
upperneck 5.38558 1.19823 -1.80957
head 4.98109 0.434431 -0.344527
rclavicle 6.95746e-015 3.37934e-015
rhumerus -69.5079 -15.4551 -56.7902
rradius 23.6049
rwrist 29.8543
rhand -16.2119 -21.8836
rfingers 7.12502
rthumb 9.99569 -51.6263
lclavicle 6.95746e-015 3.37934e-015
lhumerus -68.8199 1.4008 82.1398
lradius 17.2992
lwrist 16.9904
lhand -23.8056 -2.75245
lfingers 7.12502
lthumb 2.66507 27.2106
rfemur -73.7934 -1.63648 22.2139
rtibia 81.368
rfoot -31.9169 -12.8073
rtoes 2.12763
lfemur -74.8014 6.68987 -22.9056
ltibia 80.4852
lfoot -28.5509 16.2509
ltoes -12.2402
